<svg width="374" height="42" viewBox="0 0 374 42" fill="none" xmlns="http://www.w3.org/2000/svg">
<path d="M7.99999 6.4V35.1H21.7L20.9 41H0.649994V6.4H7.99999Z" fill="#141414"/>
<path d="M46.907 41H40.757L40.407 37.45C39.4737 38.9167 38.3404 40.0167 37.007 40.75C35.6737 41.45 34.1237 41.8 32.357 41.8C29.957 41.8 28.1237 41.0833 26.857 39.65C25.5904 38.1833 24.957 36.15 24.957 33.55V14.5H32.057V32.65C32.057 34.05 32.2904 35.05 32.757 35.65C33.2237 36.2167 33.957 36.5 34.957 36.5C36.857 36.5 38.4737 35.35 39.807 33.05V14.5H46.907V41Z" fill="#141414"/>
<path d="M64.968 13.7C66.7346 13.7 68.318 13.9667 69.718 14.5C71.1513 15 72.5013 15.8 73.768 16.9L70.668 21.1C69.8013 20.4333 68.9513 19.95 68.118 19.65C67.318 19.35 66.4346 19.2 65.468 19.2C61.7013 19.2 59.818 22.1 59.818 27.9C59.818 30.8333 60.3013 32.9333 61.268 34.2C62.2346 35.4667 63.618 36.1 65.418 36.1C66.3513 36.1 67.2013 35.9667 67.968 35.7C68.7346 35.4 69.6346 34.9167 70.668 34.25L73.768 38.7C71.2346 40.7667 68.3346 41.8 65.068 41.8C62.468 41.8 60.2013 41.2333 58.268 40.1C56.368 38.9667 54.9013 37.3667 53.868 35.3C52.8346 33.2 52.318 30.75 52.318 27.95C52.318 25.15 52.8346 22.6833 53.868 20.55C54.9013 18.3833 56.368 16.7 58.268 15.5C60.2013 14.3 62.4346 13.7 64.968 13.7Z" fill="#141414"/>
<path d="M84.8949 14.5V41H77.7949V14.5H84.8949ZM81.2949 0.849998C82.5616 0.849998 83.5949 1.25 84.3949 2.05C85.2282 2.81666 85.6449 3.8 85.6449 5C85.6449 6.2 85.2282 7.2 84.3949 8C83.5949 8.76667 82.5616 9.15 81.2949 9.15C80.0282 9.15 78.9949 8.76667 78.1949 8C77.3949 7.2 76.9949 6.2 76.9949 5C76.9949 3.8 77.3949 2.81666 78.1949 2.05C78.9949 1.25 80.0282 0.849998 81.2949 0.849998Z" fill="#141414"/>
<path d="M112.156 33.65C112.156 34.6833 112.306 35.45 112.606 35.95C112.906 36.4167 113.406 36.7667 114.106 37L112.606 41.7C111.04 41.5667 109.756 41.2 108.756 40.6C107.79 40 107.04 39.0667 106.506 37.8C104.773 40.4667 102.123 41.8 98.5562 41.8C95.9229 41.8 93.8229 41.05 92.2562 39.55C90.7229 38.0167 89.9562 36.0333 89.9562 33.6C89.9562 30.7 91.0062 28.4833 93.1062 26.95C95.2062 25.4167 98.2229 24.65 102.156 24.65H105.206V23.35C105.206 21.7167 104.84 20.5833 104.106 19.95C103.373 19.3167 102.156 19 100.456 19C98.5896 19 96.2562 19.4667 93.4562 20.4L91.8562 15.65C95.1562 14.35 98.4229 13.7 101.656 13.7C105.256 13.7 107.906 14.4833 109.606 16.05C111.306 17.5833 112.156 19.8833 112.156 22.95V33.65ZM100.506 36.7C102.506 36.7 104.073 35.7167 105.206 33.75V28.7H102.856C99.0229 28.7 97.1062 30.1333 97.1062 33C97.1062 34.1667 97.3896 35.0833 97.9562 35.75C98.5562 36.3833 99.4062 36.7 100.506 36.7Z" fill="#141414"/>
<path d="M134.05 13.7C136.383 13.7 138.2 14.4167 139.5 15.85C140.8 17.25 141.45 19.2 141.45 21.7V41H134.35V22.9C134.35 21.4667 134.1 20.4667 133.6 19.9C133.133 19.3 132.417 19 131.45 19C130.45 19 129.533 19.3167 128.7 19.95C127.9 20.55 127.117 21.4667 126.35 22.7V41H119.25V14.5H125.4L125.95 17.85C127.05 16.4833 128.25 15.45 129.55 14.75C130.883 14.05 132.383 13.7 134.05 13.7Z" fill="#141414"/>
<path d="M168.455 33.65C168.455 34.6833 168.605 35.45 168.905 35.95C169.205 36.4167 169.705 36.7667 170.405 37L168.905 41.7C167.338 41.5667 166.055 41.2 165.055 40.6C164.088 40 163.338 39.0667 162.805 37.8C161.072 40.4667 158.422 41.8 154.855 41.8C152.222 41.8 150.122 41.05 148.555 39.55C147.022 38.0167 146.255 36.0333 146.255 33.6C146.255 30.7 147.305 28.4833 149.405 26.95C151.505 25.4167 154.522 24.65 158.455 24.65H161.505V23.35C161.505 21.7167 161.138 20.5833 160.405 19.95C159.672 19.3167 158.455 19 156.755 19C154.888 19 152.555 19.4667 149.755 20.4L148.155 15.65C151.455 14.35 154.722 13.7 157.955 13.7C161.555 13.7 164.205 14.4833 165.905 16.05C167.605 17.5833 168.455 19.8833 168.455 22.95V33.65ZM156.805 36.7C158.805 36.7 160.372 35.7167 161.505 33.75V28.7H159.155C155.322 28.7 153.405 30.1333 153.405 33C153.405 34.1667 153.688 35.0833 154.255 35.75C154.855 36.3833 155.705 36.7 156.805 36.7Z" fill="#141414"/>
<path d="M196.956 6.4C202.356 6.4 206.673 7.63333 209.906 10.1C213.173 12.5333 214.806 17.0167 214.806 23.55C214.806 29.95 213.206 34.4667 210.006 37.1C206.839 39.7 202.773 41 197.806 41H187.906V6.4H196.956ZM195.256 11.8V35.6H198.256C201.089 35.6 203.273 34.7333 204.806 33C206.373 31.2333 207.156 28.0833 207.156 23.55C207.156 20.4167 206.756 17.9833 205.956 16.25C205.189 14.5167 204.156 13.35 202.856 12.75C201.556 12.1167 199.973 11.8 198.106 11.8H195.256Z" fill="#141414"/>
<path d="M240.037 33.65C240.037 34.6833 240.187 35.45 240.487 35.95C240.787 36.4167 241.287 36.7667 241.987 37L240.487 41.7C238.92 41.5667 237.637 41.2 236.637 40.6C235.67 40 234.92 39.0667 234.387 37.8C232.654 40.4667 230.004 41.8 226.437 41.8C223.804 41.8 221.704 41.05 220.137 39.55C218.604 38.0167 217.837 36.0333 217.837 33.6C217.837 30.7 218.887 28.4833 220.987 26.95C223.087 25.4167 226.104 24.65 230.037 24.65H233.087V23.35C233.087 21.7167 232.72 20.5833 231.987 19.95C231.254 19.3167 230.037 19 228.337 19C226.47 19 224.137 19.4667 221.337 20.4L219.737 15.65C223.037 14.35 226.304 13.7 229.537 13.7C233.137 13.7 235.787 14.4833 237.487 16.05C239.187 17.5833 240.037 19.8833 240.037 22.95V33.65ZM228.387 36.7C230.387 36.7 231.954 35.7167 233.087 33.75V28.7H230.737C226.904 28.7 224.987 30.1333 224.987 33C224.987 34.1667 225.27 35.0833 225.837 35.75C226.437 36.3833 227.287 36.7 228.387 36.7Z" fill="#141414"/>
<path d="M261.931 13.7C264.264 13.7 266.081 14.4167 267.381 15.85C268.681 17.25 269.331 19.2 269.331 21.7V41H262.231V22.9C262.231 21.4667 261.981 20.4667 261.481 19.9C261.014 19.3 260.298 19 259.331 19C258.331 19 257.414 19.3167 256.581 19.95C255.781 20.55 254.998 21.4667 254.231 22.7V41H247.131V14.5H253.281L253.831 17.85C254.931 16.4833 256.131 15.45 257.431 14.75C258.764 14.05 260.264 13.7 261.931 13.7Z" fill="#141414"/>
<path d="M299.036 3.95V41H292.786L292.386 37.75C290.519 40.45 287.986 41.8 284.786 41.8C281.519 41.8 279.019 40.55 277.286 38.05C275.586 35.5167 274.736 32.0833 274.736 27.75C274.736 25.0167 275.169 22.6 276.036 20.5C276.936 18.3667 278.203 16.7 279.836 15.5C281.469 14.3 283.353 13.7 285.486 13.7C287.953 13.7 290.103 14.5833 291.936 16.35V3.15L299.036 3.95ZM286.886 36.5C287.919 36.5 288.836 36.25 289.636 35.75C290.436 35.2167 291.203 34.4 291.936 33.3V21.45C291.236 20.6167 290.519 20 289.786 19.6C289.086 19.1667 288.269 18.95 287.336 18.95C285.703 18.95 284.419 19.6667 283.486 21.1C282.586 22.5333 282.136 24.75 282.136 27.75C282.136 30.9167 282.536 33.1667 283.336 34.5C284.169 35.8333 285.353 36.5 286.886 36.5Z" fill="#141414"/>
<path d="M326.268 33.65C326.268 34.6833 326.418 35.45 326.718 35.95C327.018 36.4167 327.518 36.7667 328.218 37L326.718 41.7C325.151 41.5667 323.868 41.2 322.868 40.6C321.901 40 321.151 39.0667 320.618 37.8C318.884 40.4667 316.234 41.8 312.668 41.8C310.034 41.8 307.934 41.05 306.368 39.55C304.834 38.0167 304.068 36.0333 304.068 33.6C304.068 30.7 305.118 28.4833 307.218 26.95C309.318 25.4167 312.334 24.65 316.268 24.65H319.318V23.35C319.318 21.7167 318.951 20.5833 318.218 19.95C317.484 19.3167 316.268 19 314.568 19C312.701 19 310.368 19.4667 307.568 20.4L305.968 15.65C309.268 14.35 312.534 13.7 315.768 13.7C319.368 13.7 322.018 14.4833 323.718 16.05C325.418 17.5833 326.268 19.8833 326.268 22.95V33.65ZM314.618 36.7C316.618 36.7 318.184 35.7167 319.318 33.75V28.7H316.968C313.134 28.7 311.218 30.1333 311.218 33C311.218 34.1667 311.501 35.0833 312.068 35.75C312.668 36.3833 313.518 36.7 314.618 36.7Z" fill="#141414"/>
<path d="M347.061 13.75C347.861 13.75 348.745 13.8833 349.711 14.15L348.511 21C347.578 20.7667 346.795 20.65 346.161 20.65C344.595 20.65 343.378 21.2 342.511 22.3C341.645 23.4 340.961 25.0667 340.461 27.3V41H333.361V14.5H339.511L340.161 19.65C340.795 17.7833 341.711 16.3333 342.911 15.3C344.145 14.2667 345.528 13.75 347.061 13.75Z" fill="#141414"/>
<path d="M371.727 33.65C371.727 34.6833 371.877 35.45 372.177 35.95C372.477 36.4167 372.977 36.7667 373.677 37L372.177 41.7C370.61 41.5667 369.327 41.2 368.327 40.6C367.36 40 366.61 39.0667 366.077 37.8C364.343 40.4667 361.693 41.8 358.127 41.8C355.493 41.8 353.393 41.05 351.827 39.55C350.293 38.0167 349.527 36.0333 349.527 33.6C349.527 30.7 350.577 28.4833 352.677 26.95C354.777 25.4167 357.793 24.65 361.727 24.65H364.777V23.35C364.777 21.7167 364.41 20.5833 363.677 19.95C362.943 19.3167 361.727 19 360.027 19C358.16 19 355.827 19.4667 353.027 20.4L351.427 15.65C354.727 14.35 357.993 13.7 361.227 13.7C364.827 13.7 367.477 14.4833 369.177 16.05C370.877 17.5833 371.727 19.8833 371.727 22.95V33.65ZM360.077 36.7C362.077 36.7 363.643 35.7167 364.777 33.75V28.7H362.427C358.593 28.7 356.677 30.1333 356.677 33C356.677 34.1667 356.96 35.0833 357.527 35.75C358.127 36.3833 358.977 36.7 360.077 36.7Z" fill="#141414"/>
</svg>
