<svg width="31" height="31" viewBox="0 0 31 31" fill="none" xmlns="http://www.w3.org/2000/svg">
<g clip-path="url(#clip0_27_63)">
<path d="M16.43 2.62203C8.56376 2.06661 2.06667 8.5637 2.62209 16.4299C3.08709 23.2629 9.05459 28.4166 15.9004 28.4166H20.6667C21.3771 28.4166 21.9583 27.8354 21.9583 27.1249C21.9583 26.4145 21.3771 25.8333 20.6667 25.8333H15.9263C11.1083 25.8333 6.69084 22.7074 5.48959 18.0445C3.56501 10.5529 10.54 3.56495 18.0317 5.50245C22.7075 6.69078 25.8333 11.1083 25.8333 15.9262V17.347C25.8333 18.3674 24.9163 19.3749 23.8958 19.3749C22.8754 19.3749 21.9583 18.3674 21.9583 17.347V15.7324C21.9583 12.4904 19.6592 9.5712 16.4558 9.11911C12.0642 8.4862 8.35709 12.2837 9.14501 16.7012C9.58417 19.1683 11.5088 21.2091 13.95 21.7904C16.3267 22.3458 18.5871 21.5837 20.0725 20.0724C21.2221 21.6483 23.5213 22.4749 25.6267 21.6354C27.3575 20.9508 28.4167 19.1812 28.4167 17.3212V15.9133C28.4167 9.05453 23.2629 3.08703 16.43 2.62203ZM15.5 19.3749C13.3558 19.3749 11.625 17.6441 11.625 15.4999C11.625 13.3558 13.3558 11.6249 15.5 11.6249C17.6442 11.6249 19.375 13.3558 19.375 15.4999C19.375 17.6441 17.6442 19.3749 15.5 19.3749Z" fill="#B80B7D"/>
</g>
<defs>
<clipPath id="clip0_27_63">
<rect width="31" height="31" fill="white"/>
</clipPath>
</defs>
</svg>
