<svg width="35" height="35" viewBox="0 0 35 35" fill="none" xmlns="http://www.w3.org/2000/svg">
<path d="M23.3334 1.45825H11.6667C9.24585 1.45825 7.29169 3.41242 7.29169 5.83325V29.1666C7.29169 31.5874 9.24585 33.5416 11.6667 33.5416H23.3334C25.7542 33.5416 27.7084 31.5874 27.7084 29.1666V5.83325C27.7084 3.41242 25.7542 1.45825 23.3334 1.45825ZM19.6875 30.6249H15.3125C14.9042 30.6249 14.5834 30.3041 14.5834 29.8958C14.5834 29.4874 14.9042 29.1666 15.3125 29.1666H19.6875C20.0959 29.1666 20.4167 29.4874 20.4167 29.8958C20.4167 30.3041 20.0959 30.6249 19.6875 30.6249ZM24.7917 26.2499H10.2084V5.83325H24.7917V26.2499Z" fill="#B80B7D"/>
</svg>
